<?xml version="1.0" encoding="UTF-8"?>
<svg width="24px" height="24px" viewBox="0 0 24 24" version="1.1" xmlns="http://www.w3.org/2000/svg" xmlns:xlink="http://www.w3.org/1999/xlink">
    <!-- Generator: Sketch 56.2 (81672) - https://sketch.com -->
    <title>checkbox_checked 2</title>
    <desc>Created with Sketch.</desc>
    <defs>
        <path d="M4.93184247,11.1818276 C4.47169625,10.6671852 3.68147396,10.6230074 3.16683158,11.0831536 C2.6521892,11.5432998 2.60801132,12.3335221 3.06815753,12.8481645 L6.18412975,16.3331684 C6.69641143,16.9061208 7.59952816,16.8854171 8.08501595,16.2895912 L19.085016,2.78959119 C19.5210951,2.25440311 19.4407515,1.46703544 18.9055634,1.03095627 C18.3703753,0.594877096 17.5830077,0.675220736 17.1469285,1.21040881 L7.0718486,13.5752796 L4.93184247,11.1818276 Z" id="path-1"></path>
        <filter x="-21.1%" y="-15.6%" width="142.1%" height="143.7%" filterUnits="objectBoundingBox" id="filter-2">
            <feOffset dx="0" dy="1" in="SourceAlpha" result="shadowOffsetOuter1"></feOffset>
            <feGaussianBlur stdDeviation="1" in="shadowOffsetOuter1" result="shadowBlurOuter1"></feGaussianBlur>
            <feColorMatrix values="0 0 0 0 0   0 0 0 0 0.505681818   0 0 0 0 1  0 0 0 0.5 0" type="matrix" in="shadowBlurOuter1"></feColorMatrix>
        </filter>
        <rect id="path-3" x="1" y="3" width="16" height="16" rx="4"></rect>
        <filter x="-21.9%" y="-15.6%" width="143.8%" height="143.8%" filterUnits="objectBoundingBox" id="filter-5">
            <feOffset dx="0" dy="1" in="SourceAlpha" result="shadowOffsetOuter1"></feOffset>
            <feGaussianBlur stdDeviation="1" in="shadowOffsetOuter1" result="shadowBlurOuter1"></feGaussianBlur>
            <feColorMatrix values="0 0 0 0 0   0 0 0 0 0.505681818   0 0 0 0 1  0 0 0 0.5 0" type="matrix" in="shadowBlurOuter1"></feColorMatrix>
        </filter>
    </defs>
    <g id="页面-1" stroke="none" stroke-width="1" fill="none" fill-rule="evenodd">
        <g id="[1-2-1]日历-月-新建日程" transform="translate(-837.000000, -503.000000)">
            <g id="添加远程服务器-高级" transform="translate(741.000000, 293.000000)">
                <g id="checkbox_checked-2" transform="translate(96.000000, 210.000000)">
                    <g id="checkbox/checked/normal" transform="translate(2.000000, 2.000000)">
                        <g id="checkbox-checked_insensitive" transform="translate(1.000000, -1.000000)">
                            <g id="Path-1112">
                                <use fill="black" fill-opacity="1" filter="url(#filter-2)" xlink:href="#path-1"></use>
                                <use fill="#0081FF" fill-rule="evenodd" xlink:href="#path-1"></use>
                            </g>
                            <mask id="mask-4" fill="white">
                                <use xlink:href="#path-3"></use>
                            </mask>
                            <g id="蒙版">
                                <use fill="black" fill-opacity="1" filter="url(#filter-5)" xlink:href="#path-3"></use>
                                <use fill="#0081FF" fill-rule="evenodd" xlink:href="#path-3"></use>
                            </g>
                            <path d="M4.93184247,11.1818276 C4.47169625,10.6671852 3.68147396,10.6230074 3.16683158,11.0831536 C2.6521892,11.5432998 2.60801132,12.3335221 3.06815753,12.8481645 L6.18412975,16.3331684 C6.69641143,16.9061208 7.59952816,16.8854171 8.08501595,16.2895912 L19.085016,2.78959119 C19.5210951,2.25440311 19.4407515,1.46703544 18.9055634,1.03095627 C18.3703753,0.594877096 17.5830077,0.675220736 17.1469285,1.21040881 L7.0718486,13.5752796 L4.93184247,11.1818276 Z" id="Path-1112" fill="#FFFFFF" fill-rule="nonzero" mask="url(#mask-4)"></path>
                        </g>
                    </g>
                </g>
            </g>
        </g>
    </g>
</svg>